<?xml version="1.0" encoding="UTF-8"?>
<svg id="Camada_2" xmlns="http://www.w3.org/2000/svg" viewBox="0 0 383.35 383.36">
  <g id="Camada_1-2" data-name="Camada_1">
    <path d="M357.9,383.36h-8.98c-9.19-1.96-15.84-7.72-22.23-14.22-17.48-17.8-35.22-35.34-52.87-52.98-.94-.94-1.94-1.83-2.85-2.68-77.02,52.95-176.37,35.09-231.26-31.62C-15.07,215.27-12.92,120.56,44.57,56.69,101.78-6.86,196.31-18.56,268.37,29.62c35.1,23.47,58.64,56.04,69.7,96.85,14.03,51.72,5,99.93-25.02,145.26,1.11.78,2.39,1.41,3.35,2.37,17.58,17.52,35.03,35.19,52.73,52.59,6.5,6.39,12.3,13.02,14.22,22.24v8.98c-.27.8-.59,1.59-.81,2.41-2.36,9.02-7.59,15.81-15.98,19.92-2.74,1.34-5.77,2.1-8.67,3.12ZM172.12,59.92c-61.91.07-112.28,50.59-112.17,112.51.11,61.75,50.46,112.05,112.22,112.1,61.9.05,112.37-50.41,112.36-112.33,0-61.92-50.5-112.35-112.41-112.28Z"/>
  </g>
</svg>